<?xml version="1.0" standalone="no"?><!DOCTYPE svg PUBLIC "-//W3C//DTD SVG 1.1//EN" "http://www.w3.org/Graphics/SVG/1.1/DTD/svg11.dtd"><svg t="1523506493759" class="icon" style="" viewBox="0 0 1024 1024" version="1.1" xmlns="http://www.w3.org/2000/svg" p-id="627" xmlns:xlink="http://www.w3.org/1999/xlink" width="32" height="32"><defs><style type="text/css"></style></defs><path d="M418.835134 102.517885 158.452825 102.517885c-30.765701 0-55.796794 25.03007-55.796794 55.79577l0 260.383332c0 30.765701 25.03007 55.796794 55.796794 55.796794l260.382309 0c30.765701 0 55.796794-25.03007 55.796794-55.796794L474.631928 158.313655C474.631928 127.547954 449.600835 102.517885 418.835134 102.517885zM437.433724 418.696987c0 10.255575-8.343015 18.59859-18.59859 18.59859L158.452825 437.295578c-10.255575 0-18.59859-8.343015-18.59859-18.59859L139.854235 158.313655c0-10.254551 8.343015-18.59859 18.59859-18.59859l260.382309 0c10.255575 0 18.59859 8.343015 18.59859 18.59859L437.433724 418.696987z" p-id="628" fill="#ffffff"></path><path d="M865.206414 102.517885 604.823082 102.517885c-30.765701 0-55.79577 25.03007-55.79577 55.79577l0 260.383332c0 30.765701 25.03007 55.796794 55.79577 55.796794l260.383332 0c30.765701 0 55.794747-25.03007 55.794747-55.796794L921.001161 158.313655C921.001161 127.547954 895.972115 102.517885 865.206414 102.517885zM883.805004 418.696987c0 10.255575-8.343015 18.59859-18.59859 18.59859L604.823082 437.295578c-10.254551 0-18.599613-8.343015-18.599613-18.59859L586.223468 158.313655c0-10.254551 8.344039-18.59859 18.599613-18.59859l260.383332 0c10.254551 0 18.59859 8.343015 18.59859 18.59859L883.805004 418.696987z" p-id="629" fill="#ffffff"></path><path d="M418.835134 548.889165 158.452825 548.889165c-30.765701 0-55.796794 25.03007-55.796794 55.79577l0 260.382309c0 30.765701 25.03007 55.79577 55.796794 55.79577l260.382309 0c30.765701 0 55.796794-25.03007 55.796794-55.79577L474.631928 604.684936C474.631928 573.919235 449.600835 548.889165 418.835134 548.889165zM437.433724 865.067244c0 10.254551-8.343015 18.599613-18.59859 18.599613L158.452825 883.666858c-10.255575 0-18.59859-8.344039-18.59859-18.599613L139.854235 604.684936c0-10.254551 8.343015-18.599613 18.59859-18.599613l260.382309 0c10.255575 0 18.59859 8.344039 18.59859 18.599613L437.433724 865.067244z" p-id="630" fill="#ffffff"></path><path d="M846.369394 548.889165 623.660102 548.889165c-41.153282 0-74.633814 33.479509-74.633814 74.632791l0 222.710314c0 41.153282 33.388435 74.632791 74.42813 74.632791l106.59269 0c10.271948 0 18.59859-8.326643 18.59859-18.59859s-8.326643-18.59859-18.59859-18.59859L623.455441 883.667881c-20.529569 0-37.231973-16.793478-37.231973-37.435611L586.223468 623.521956c0-20.642133 16.794501-37.435611 37.436634-37.435611l222.709291 0c20.642133 0 37.435611 16.633842 37.435611 37.077453l0 114.554012c0 10.271948 8.326643 18.59859 18.59859 18.59859s18.59859-8.326643 18.59859-18.59859L921.002185 623.163799C921.001161 582.208015 887.522676 548.889165 846.369394 548.889165z" p-id="631" fill="#ffffff"></path></svg>