<?xml version="1.0" standalone="no"?><!DOCTYPE svg PUBLIC "-//W3C//DTD SVG 1.1//EN" "http://www.w3.org/Graphics/SVG/1.1/DTD/svg11.dtd"><svg t="1523506977265" class="icon" style="" viewBox="0 0 1024 1024" version="1.1" xmlns="http://www.w3.org/2000/svg" p-id="9027" xmlns:xlink="http://www.w3.org/1999/xlink" width="32" height="32"><defs><style type="text/css"></style></defs><path d="M970.786133 503.432533C982.596267 526.472533 989.866667 552.1408 989.866667 579.652267c0 46.660267-18.773333 90.2144-52.4288 122.197333l-237.329067 236.202667L682.666667 955.392l-17.442133-17.339733-66.901333-66.594133c-34.235733 33.28-57.309867 55.6032-57.309867 55.6032L512 955.255467l-29.047467-28.194133L79.701333 535.790933C28.296533 484.0448 0 416.1536 0 344.610133c0-152.200533 128.238933-276.036267 285.9008-276.036267 90.112 0 172.817067 35.054933 226.0992 101.6832 53.282133-66.594133 135.9872-101.6832 226.065067-101.6832 157.696 0 285.934933 123.835733 285.934933 276.036267C1024 402.807467 1004.714667 457.454933 970.786133 503.432533zM682.666667 868.522667l198.826667-195.925333c23.586133-21.879467 40.482133-56.9344 40.482133-90.999467 0-66.4576-55.739733-103.150933-124.450133-103.150933l-0.273067-0.3072c-54.954667 0-95.812267 33.757867-114.551467 77.243733-18.773333-43.485867-63.146667-76.936533-114.858667-76.936533-68.7104 0-124.450133 34.6112-124.450133 101.000533 0 32.324267 15.36 63.726933 36.829867 85.333333L682.666667 868.522667zM724.753067 136.9088l-0.512-0.477867c-101.819733 0-177.527467 60.177067-212.2752 137.591467-34.781867-77.448533-116.9408-137.147733-212.7872-137.147733-127.2832 0-230.536533 95.880533-230.536533 214.152533 0 57.582933 24.507733 109.7728 64.3072 148.2752L512 866.133333c0 0 16.145067-15.598933 41.028267-39.7312l-129.7408-129.1264C392.465067 665.3952 375.466667 623.650133 375.466667 579.652267c0-93.696 76.936533-169.8816 171.52-169.8816 54.0672 0 103.697067 21.572267 135.68 62.532267 31.982933-40.96 81.6128-62.532267 135.645867-62.532267 42.120533 0 80.247467 15.6672 110.148267 40.686933 16.861867-29.764267 26.897067-63.3856 26.897067-99.396267C955.323733 232.789333 852.104533 136.9088 724.753067 136.9088z" p-id="9028" fill="#ffffff"></path></svg>