<?xml version="1.0" standalone="no"?><!DOCTYPE svg PUBLIC "-//W3C//DTD SVG 1.1//EN" "http://www.w3.org/Graphics/SVG/1.1/DTD/svg11.dtd"><svg t="1523513357264" class="icon" style="" viewBox="0 0 1024 1024" version="1.1" xmlns="http://www.w3.org/2000/svg" p-id="1911" xmlns:xlink="http://www.w3.org/1999/xlink" width="32" height="32"><defs><style type="text/css"></style></defs><path d="M928.064 285.525333c-6.570667-3.84-14.677333-3.861333-21.290667-0.085333L746.666667 376.661333c-1.216 0.682667-1.984 1.749333-3.008 2.602667-10.261333 1.536-18.261333 10.026667-18.261333 20.714667l0 349.930667c0 21.76-17.706667 39.466667-39.488 39.466667L167.466667 789.376c-21.76 0-39.466667-17.706667-39.466667-39.466667L128 316.8C128 295.04 145.706667 277.333333 167.466667 277.333333l526.954667 0c11.797333 0 21.333333-9.557333 21.333333-21.333333s-9.536-21.333333-21.333333-21.333333L167.466667 234.666667C122.176 234.666667 85.333333 271.509333 85.333333 316.8l0 433.130667c0 45.290667 36.842667 82.133333 82.133333 82.133333l518.464 0c45.290667 0 82.154667-36.842667 82.154667-82.133333l0-67.52 138.026667 85.653333c3.434667 2.154667 7.338667 3.2 11.242667 3.2 3.562667 0 7.146667-0.896 10.368-2.688C934.485333 764.8 938.666667 757.674667 938.666667 749.909333L938.666667 303.978667C938.666667 296.384 934.634667 289.344 928.064 285.525333zM896 711.552l-126.016-78.186667c-0.597333-0.384-1.301333-0.405333-1.92-0.704l0-219.093333L896 340.693333 896 711.552z" p-id="1912" fill="#ffffff"></path><path d="M215.296 363.733333m-42.666667 0a2 2 0 1 0 85.333333 0 2 2 0 1 0-85.333333 0Z" p-id="1913" fill="#ffffff"></path></svg>